<svg width="200" height="60" viewBox="0 0 200 60" fill="none" xmlns="http://www.w3.org/2000/svg">
<path d="M198.673 52.2628C198.673 53.0086 198.526 53.7471 198.241 54.4361C197.955 55.1251 197.536 55.7511 197.008 56.2782C196.481 56.8053 195.854 57.2232 195.165 57.5081C194.475 57.793 193.736 57.9392 192.99 57.9384H7.0097C5.50232 57.94 4.05603 57.343 2.9889 56.2786C1.92177 55.2143 1.32118 53.7698 1.31921 52.2628V7.00141C1.32118 5.49375 1.92153 4.04848 2.98845 2.98296C4.05536 1.91744 5.50164 1.31875 7.0097 1.31836H192.989C193.735 1.31836 194.474 1.46537 195.164 1.75098C195.854 2.0366 196.48 2.45524 197.008 2.98298C197.536 3.51072 197.954 4.13722 198.24 4.82671C198.525 5.5162 198.672 6.25517 198.672 7.00141L198.673 52.2628Z" fill="white"/>
<path d="M192.99 59.2593H7.00972C5.1528 59.2589 3.37187 58.5221 2.05772 57.2105C0.743567 55.8989 0.00353321 54.1197 0 52.2633L0 7.00341C0.00274704 5.14607 0.742292 3.36564 2.0564 2.05271C3.37051 0.739787 5.15188 0.00156767 7.00972 0L192.989 0C194.846 0.0023499 196.627 0.740821 197.941 2.05358C199.255 3.36634 199.995 5.14631 199.999 7.00341V52.2633C200.001 56.1222 196.852 59.2593 192.99 59.2593Z" fill="#A6A6A6"/>
<path d="M198.673 52.2628C198.673 53.0086 198.526 53.7471 198.241 54.4361C197.955 55.1251 197.536 55.7511 197.008 56.2782C196.481 56.8053 195.854 57.2232 195.165 57.5081C194.475 57.793 193.736 57.9392 192.99 57.9384H7.0097C5.50232 57.94 4.05603 57.343 2.9889 56.2786C1.92177 55.2143 1.32118 53.7698 1.31921 52.2628V7.00141C1.32118 5.49375 1.92153 4.04848 2.98845 2.98296C4.05536 1.91744 5.50164 1.31875 7.0097 1.31836H192.989C193.735 1.31836 194.474 1.46537 195.164 1.75098C195.854 2.0366 196.48 2.45524 197.008 2.98298C197.536 3.51072 197.954 4.13722 198.24 4.82671C198.525 5.5162 198.672 6.25517 198.672 7.00141L198.673 52.2628Z" fill="black"/>
<path d="M44.6582 29.3177C44.6152 24.5416 48.5699 22.218 48.7508 22.1098C46.511 18.8452 43.0395 18.3991 41.8196 18.3636C38.904 18.0568 36.0758 20.1077 34.5905 20.1077C33.0756 20.1077 30.7885 18.3932 28.3234 18.4436C25.1513 18.4925 22.1838 20.3286 20.5563 23.1797C17.1974 28.9932 19.7025 37.5363 22.9205 42.2353C24.5303 44.5382 26.4113 47.1063 28.8734 47.0159C31.2821 46.9181 32.1818 45.4822 35.0886 45.4822C37.9686 45.4822 38.8135 47.0159 41.3245 46.9581C43.9096 46.9181 45.5372 44.6464 47.0906 42.3243C48.9509 39.688 49.6979 37.0887 49.7276 36.9554C49.6683 36.9346 44.7086 35.0408 44.6582 29.3177ZM39.9149 15.2723C41.2104 13.6526 42.0968 11.4491 41.8507 9.21289C39.9756 9.29588 37.6307 10.5095 36.2803 12.0937C35.0856 13.4896 34.0184 15.7777 34.2941 17.9294C36.4004 18.0865 38.563 16.8669 39.9149 15.2723Z" fill="white"/>
<path d="M192.99 0H93.3734L132.392 59.2593H192.99C194.848 59.2577 196.628 58.5199 197.943 57.2076C199.257 55.8954 199.996 54.1157 200 52.2589V7.00341C199.997 5.14619 199.257 3.36599 197.943 2.05315C196.629 0.740304 194.848 0.00195894 192.99 0Z" fill="url(#paint0_linear_1373_1355)"/>
<path d="M79.5468 46.6848H76.1805L74.3365 40.8921H67.9271L66.1706 46.6848H62.8933L69.2449 26.9638H73.167L79.5468 46.6848ZM73.7807 38.4618L72.1131 33.3122C71.9367 32.7862 71.6047 31.5473 71.1185 29.5971H71.0592C70.8635 30.4359 70.5508 31.6747 70.1224 33.3122L68.483 38.4618H73.7807ZM95.8489 39.3998C95.8489 41.8183 95.1923 43.7299 93.8775 45.1333C92.7005 46.3825 91.2375 47.0064 89.4929 47.0064C87.6089 47.0064 86.2541 46.3351 85.4314 44.9895V52.4508H82.2712V37.1385C82.2712 35.6195 82.2312 34.0621 82.1541 32.4646H84.9334L85.1098 34.7185H85.1691C86.223 33.0203 87.8223 32.1712 89.9687 32.1712C91.6466 32.1712 93.0474 32.8336 94.168 34.1599C95.2871 35.4891 95.8489 37.2348 95.8489 39.3998ZM92.6294 39.5154C92.6294 38.1313 92.3181 36.9903 91.6926 36.0908C91.0093 35.1557 90.0917 34.6874 88.9415 34.6874C88.1618 34.6874 87.4533 34.9482 86.8203 35.4624C86.1859 35.9811 85.7709 36.6583 85.5767 37.4971C85.49 37.8108 85.4407 38.1336 85.4299 38.4588V40.8313C85.4299 41.8642 85.7472 42.737 86.3816 43.4513C87.016 44.1626 87.8401 44.5198 88.854 44.5198C90.0443 44.5198 90.9707 44.0589 91.6333 43.1446C92.2974 42.2273 92.6294 41.0181 92.6294 39.5154ZM112.209 39.3998C112.209 41.8183 111.552 43.7299 110.237 45.1333C109.059 46.3825 107.597 47.0064 105.851 47.0064C103.967 47.0064 102.613 46.3351 101.79 44.9895V52.4508H98.6297V37.1385C98.6297 35.6195 98.5897 34.0621 98.5126 32.4646H101.292L101.468 34.7185H101.528C102.58 33.0203 104.179 32.1712 106.327 32.1712C108.004 32.1712 109.404 32.8336 110.528 34.1599C111.646 35.4891 112.209 37.2348 112.209 39.3998ZM108.988 39.5154C108.988 38.1313 108.675 36.9903 108.05 36.0908C107.366 35.1557 106.452 34.6874 105.301 34.6874C104.522 34.6874 103.813 34.9482 103.177 35.4624C102.543 35.9811 102.129 36.6583 101.935 37.4971C101.839 37.8883 101.787 38.2069 101.787 38.4588V40.8313C101.787 41.8642 102.106 42.737 102.737 43.4513C103.371 44.1611 104.196 44.5198 105.213 44.5198C106.404 44.5198 107.331 44.0589 107.992 43.1446C108.656 42.2273 108.988 41.0181 108.988 39.5154ZM130.5 41.1529C130.5 42.8319 129.913 44.1967 128.747 45.2503C127.463 46.4003 125.671 46.9767 123.373 46.9767C121.251 46.9767 119.549 46.5677 118.265 45.7482L118.996 43.1149C120.382 43.9359 121.904 44.3449 123.562 44.3449C124.753 44.3449 125.68 44.0752 126.341 43.5402C127.004 43.0038 127.339 42.2866 127.339 41.3915C127.339 40.5898 127.061 39.9185 126.517 39.3717C125.97 38.8263 125.066 38.3181 123.796 37.8513C120.342 36.5635 118.614 34.68 118.614 32.2023C118.614 30.5841 119.225 29.2593 120.443 28.2234C121.661 27.1891 123.277 26.6719 125.287 26.6719C127.082 26.6719 128.578 26.9846 129.765 27.6084L128.972 30.184C127.854 29.5793 126.593 29.277 125.182 29.277C124.067 29.277 123.193 29.5512 122.567 30.0965C122.041 30.5841 121.774 31.1783 121.774 31.8837C121.774 32.6617 122.078 33.3078 122.683 33.8146C123.207 34.2814 124.165 34.7897 125.549 35.335C127.248 36.0196 128.496 36.8169 129.295 37.7327C130.1 38.6485 130.5 39.791 130.5 41.1529ZM140.976 34.8356H137.492V41.7397C137.492 43.4958 138.106 44.3716 139.336 44.3716C139.901 44.3716 140.369 44.3242 140.74 44.2249L140.827 46.624C140.205 46.8567 139.385 46.9738 138.37 46.9738C137.122 46.9738 136.146 46.5929 135.442 45.8312C134.741 45.0695 134.388 43.7936 134.388 41.9976V34.8297H132.313V32.4587H134.388V29.855L137.492 28.9184V32.4587H140.976V34.8356ZM156.661 39.4576C156.661 41.6434 156.036 43.438 154.787 44.8413C153.482 46.2862 151.744 47.0064 149.579 47.0064C147.489 47.0064 145.827 46.3143 144.588 44.9317C143.349 43.5462 142.729 41.8005 142.729 39.6947C142.729 37.4912 143.369 35.6862 144.646 34.2829C145.925 32.878 147.647 32.1756 149.813 32.1756C151.9 32.1756 153.576 32.8691 154.845 34.2532C156.058 35.5958 156.661 37.3296 156.661 39.4576ZM153.385 39.5302C153.385 38.2277 153.104 37.1103 152.539 36.1752C151.876 35.046 150.928 34.4814 149.699 34.4814C148.433 34.4814 147.462 35.046 146.801 36.1752C146.235 37.1103 145.953 38.2469 145.953 39.5895C145.953 40.8936 146.235 42.0139 146.801 42.946C147.484 44.0752 148.437 44.6398 149.672 44.6398C150.88 44.6398 151.827 44.0633 152.512 42.9178C153.093 41.9605 153.385 40.8358 153.385 39.5302ZM166.938 35.2431C166.609 35.1838 166.276 35.1545 165.942 35.1557C164.83 35.1557 163.97 35.5736 163.365 36.4153C162.841 37.1562 162.577 38.0928 162.577 39.2235V46.6848H159.417V36.9429C159.419 35.4501 159.389 33.9575 159.325 32.4661H162.077L162.193 35.1868H162.28C162.615 34.2517 163.14 33.4975 163.861 32.9329C164.52 32.4395 165.321 32.1723 166.145 32.1712C166.437 32.1712 166.701 32.1919 166.935 32.229L166.938 35.2431ZM181.071 38.9019C181.079 39.3822 181.041 39.8621 180.956 40.3349H171.475C171.511 41.7397 171.97 42.8156 172.851 43.5565C173.65 44.2175 174.683 44.5494 175.951 44.5494C177.355 44.5494 178.636 44.3271 179.788 43.8781L180.283 46.0698C178.937 46.6567 177.348 46.9486 175.514 46.9486C173.309 46.9486 171.577 46.2995 170.317 45.0043C169.06 43.7077 168.43 41.965 168.43 39.7822C168.43 37.6393 169.016 35.8537 170.188 34.4296C171.416 32.9092 173.074 32.1489 175.161 32.1489C177.211 32.1489 178.763 32.9092 179.817 34.4296C180.652 35.6343 181.071 37.1281 181.071 38.9019ZM178.058 38.0824C178.08 37.1444 177.873 36.3368 177.444 35.6536C176.897 34.7734 176.055 34.3347 174.927 34.3347C173.894 34.3347 173.052 34.763 172.412 35.6225C171.886 36.3056 171.573 37.1266 171.476 38.0795L178.058 38.0824Z" fill="white"/>
<path d="M67.0155 19.9923C66.1365 19.9923 65.3761 19.9493 64.7432 19.8767V10.3422C65.6284 10.2055 66.523 10.1381 67.4187 10.1407C71.0429 10.1407 72.7119 11.9234 72.7119 14.8294C72.7119 18.1814 70.7405 19.9923 67.0155 19.9923ZM67.5462 11.3632C67.057 11.3632 66.6405 11.3929 66.2951 11.464V18.7119C66.4819 18.7416 66.8406 18.7549 67.3446 18.7549C69.7192 18.7549 71.071 17.4034 71.071 14.8724C71.071 12.6154 69.8481 11.3632 67.5462 11.3632ZM77.9132 20.0649C75.8707 20.0649 74.547 18.54 74.547 16.4698C74.547 14.3122 75.8988 12.774 78.0289 12.774C80.0418 12.774 81.3951 14.2263 81.3951 16.3557C81.3951 18.54 80.0003 20.0649 77.9132 20.0649ZM77.9725 13.9091C76.8504 13.9091 76.1315 14.9583 76.1315 16.4254C76.1315 17.8643 76.8653 18.9135 77.9577 18.9135C79.0502 18.9135 79.7839 17.7917 79.7839 16.3957C79.7839 14.9731 79.065 13.9091 77.9725 13.9091ZM93.0429 12.9177L90.8565 19.9063H89.4321L88.5264 16.8714C88.3012 16.1291 88.1137 15.3758 87.9646 14.6145H87.935C87.8208 15.3762 87.6044 16.1394 87.3747 16.8714L86.4112 19.9063H84.9719L82.9145 12.9177H84.5109L85.3024 16.2401C85.4892 17.0315 85.6463 17.7783 85.7768 18.4837H85.8064C85.9205 17.8954 86.1073 17.1604 86.3815 16.255L87.3747 12.9192H88.6405L89.5907 16.1838C89.8204 16.9752 90.0072 17.7517 90.1525 18.4852H90.194C90.2948 17.7665 90.4534 17.0033 90.6683 16.1838L91.5176 12.9192L93.0429 12.9177ZM101.092 19.9063H99.5383V15.8934C99.5383 14.6575 99.0639 14.0381 98.1286 14.0381C97.2081 14.0381 96.5752 14.8294 96.5752 15.7496V19.9063H95.0218V14.9153C95.0218 14.2974 95.0069 13.635 94.9639 12.9163H96.3306L96.4032 13.9951H96.4462C96.8642 13.2482 97.7121 12.774 98.6622 12.774C100.13 12.774 101.093 13.8958 101.093 15.7215L101.092 19.9063ZM105.375 19.9063H103.821V9.71094H105.375V19.9063ZM111.039 20.0649C108.998 20.0649 107.673 18.54 107.673 16.4698C107.673 14.3122 109.025 12.774 111.153 12.774C113.168 12.774 114.52 14.2263 114.52 16.3557C114.521 18.54 113.125 20.0649 111.039 20.0649ZM111.097 13.9091C109.975 13.9091 109.256 14.9583 109.256 16.4254C109.256 17.8643 109.991 18.9135 111.081 18.9135C112.175 18.9135 112.907 17.7917 112.907 16.3957C112.908 14.9731 112.191 13.9091 111.097 13.9091ZM120.644 19.9063L120.532 19.1017H120.49C120.016 19.7493 119.324 20.0649 118.446 20.0649C117.194 20.0649 116.304 19.1876 116.304 18.008C116.304 16.2831 117.8 15.391 120.39 15.391V15.2621C120.39 14.3418 119.902 13.881 118.938 13.881C118.249 13.881 117.644 14.0544 117.112 14.3996L116.796 13.3786C117.443 12.9755 118.249 12.774 119.196 12.774C121.022 12.774 121.944 13.7372 121.944 15.6652V18.2392C121.944 18.9446 121.976 19.4914 122.045 19.9078L120.644 19.9063ZM120.431 16.4254C118.706 16.4254 117.84 16.8433 117.84 17.8347C117.84 18.5682 118.286 18.9268 118.906 18.9268C119.696 18.9268 120.431 18.3237 120.431 17.5042V16.4254ZM129.488 19.9063L129.415 18.7846H129.372C128.926 19.6322 128.176 20.0649 127.128 20.0649C125.443 20.0649 124.195 18.583 124.195 16.498C124.195 14.3122 125.489 12.7725 127.255 12.7725C128.191 12.7725 128.853 13.0882 129.227 13.7224H129.258V9.71094H130.813V18.0229C130.813 18.6986 130.829 19.3314 130.871 19.9063H129.488ZM129.258 15.7941C129.258 14.8161 128.61 13.9817 127.622 13.9817C126.47 13.9817 125.766 15.0028 125.766 16.4402C125.766 17.8495 126.497 18.8142 127.59 18.8142C128.567 18.8142 129.258 17.9651 129.258 16.9589V15.7941ZM140.672 20.0649C138.631 20.0649 137.307 18.54 137.307 16.4698C137.307 14.3122 138.659 12.774 140.787 12.774C142.802 12.774 144.154 14.2263 144.154 16.3557C144.155 18.54 142.76 20.0649 140.672 20.0649ZM140.729 13.9091C139.609 13.9091 138.89 14.9583 138.89 16.4254C138.89 17.8643 139.624 18.9135 140.715 18.9135C141.809 18.9135 142.541 17.7917 142.541 16.3957C142.544 14.9731 141.825 13.9091 140.729 13.9091ZM152.508 19.9063H150.953V15.8934C150.953 14.6575 150.478 14.0381 149.543 14.0381C148.623 14.0381 147.991 14.8294 147.991 15.7496V19.9063H146.436V14.9153C146.436 14.2974 146.421 13.635 146.378 12.9163H147.745L147.818 13.9951H147.861C148.277 13.2482 149.127 12.7725 150.075 12.7725C151.543 12.7725 152.508 13.8943 152.508 15.72V19.9063ZM162.959 14.0825H161.25V17.476C161.25 18.34 161.55 18.7712 162.154 18.7712C162.429 18.7712 162.658 18.7416 162.844 18.6986L162.887 19.8782C162.586 19.9938 162.183 20.0516 161.681 20.0516C160.457 20.0516 159.725 19.3758 159.725 17.6064V14.0825H158.705V12.9177H159.725V11.6374L161.25 11.1765V12.9163H162.959V14.0825ZM171.183 19.9063H169.631V15.923C169.631 14.6723 169.158 14.0395 168.221 14.0395C167.416 14.0395 166.666 14.5864 166.666 15.6933V19.9063H165.114V9.71094H166.666V13.9091H166.698C167.187 13.1474 167.895 12.7725 168.799 12.7725C170.279 12.7725 171.183 13.9225 171.183 15.7496V19.9063ZM179.608 16.7855H174.946C174.976 18.1088 175.852 18.8557 177.149 18.8557C177.838 18.8557 178.473 18.7401 179.033 18.5252L179.275 19.604C178.614 19.8915 177.835 20.0353 176.93 20.0353C174.743 20.0353 173.449 18.6541 173.449 16.5128C173.449 14.37 174.775 12.7592 176.755 12.7592C178.541 12.7592 179.662 14.0825 179.662 16.0816C179.672 16.3175 179.654 16.5538 179.608 16.7855ZM178.184 15.6785C178.184 14.5997 177.64 13.838 176.647 13.838C175.754 13.838 175.049 14.6145 174.948 15.6785H178.184Z" fill="white"/>
<defs>
<linearGradient id="paint0_linear_1373_1355" x1="146.685" y1="59.4166" x2="146.685" y2="-154.301" gradientUnits="userSpaceOnUse">
<stop stop-color="#1A1A1A" stop-opacity="0.1"/>
<stop offset="0.123" stop-color="#212121" stop-opacity="0.151"/>
<stop offset="0.308" stop-color="#353535" stop-opacity="0.227"/>
<stop offset="0.532" stop-color="#575757" stop-opacity="0.318"/>
<stop offset="0.783" stop-color="#858585" stop-opacity="0.421"/>
<stop offset="1" stop-color="#B3B3B3" stop-opacity="0.51"/>
</linearGradient>
</defs>
</svg>
