<svg width="144" height="144" viewBox="0 0 144 144" fill="none" xmlns="http://www.w3.org/2000/svg">
<g filter="url(#filter0_d_1373_1350)">
<rect x="8" y="8" width="128" height="128" rx="16" fill="#1E1E1E"/>
<path d="M39.146 81V63.5455H42.8363V77.9574H50.3192V81H39.146ZM68.1232 72.2727C68.1232 74.1761 67.7624 75.7955 67.0408 77.1307C66.3249 78.4659 65.3477 79.4858 64.109 80.1903C62.8761 80.8892 61.4897 81.2386 59.9499 81.2386C58.3988 81.2386 57.0067 80.8864 55.7738 80.1818C54.5408 79.4773 53.5664 78.4574 52.8505 77.1222C52.1346 75.7869 51.7766 74.1705 51.7766 72.2727C51.7766 70.3693 52.1346 68.75 52.8505 67.4148C53.5664 66.0795 54.5408 65.0625 55.7738 64.3636C57.0067 63.6591 58.3988 63.3068 59.9499 63.3068C61.4897 63.3068 62.8761 63.6591 64.109 64.3636C65.3477 65.0625 66.3249 66.0795 67.0408 67.4148C67.7624 68.75 68.1232 70.3693 68.1232 72.2727ZM64.3817 72.2727C64.3817 71.0398 64.1971 70 63.8278 69.1534C63.4641 68.3068 62.9499 67.6648 62.2852 67.2273C61.6204 66.7898 60.842 66.571 59.9499 66.571C59.0579 66.571 58.2795 66.7898 57.6147 67.2273C56.9499 67.6648 56.4329 68.3068 56.0636 69.1534C55.6999 70 55.5181 71.0398 55.5181 72.2727C55.5181 73.5057 55.6999 74.5455 56.0636 75.392C56.4329 76.2386 56.9499 76.8807 57.6147 77.3182C58.2795 77.7557 59.0579 77.9744 59.9499 77.9744C60.842 77.9744 61.6204 77.7557 62.2852 77.3182C62.9499 76.8807 63.4641 76.2386 63.8278 75.392C64.1971 74.5455 64.3817 73.5057 64.3817 72.2727Z" fill="#F0F0F0"/>
<path d="M82.4308 69.1875C82.3114 68.7727 82.1438 68.4062 81.9279 68.0881C81.712 67.7642 81.4478 67.4915 81.1353 67.2699C80.8285 67.0426 80.4762 66.8693 80.0785 66.75C79.6864 66.6307 79.2518 66.571 78.7745 66.571C77.8825 66.571 77.0984 66.7926 76.4222 67.2358C75.7518 67.679 75.229 68.3239 74.854 69.1705C74.479 70.0114 74.2915 71.0398 74.2915 72.2557C74.2915 73.4716 74.4762 74.5057 74.8455 75.358C75.2148 76.2102 75.7376 76.8608 76.4137 77.3097C77.0898 77.7528 77.8881 77.9744 78.8086 77.9744C79.6438 77.9744 80.3569 77.8267 80.9478 77.5312C81.5444 77.2301 81.9989 76.8068 82.3114 76.2614C82.6296 75.7159 82.7887 75.071 82.7887 74.3267L83.5387 74.4375H79.0387V71.6591H86.3427V73.858C86.3427 75.392 86.0188 76.7102 85.3711 77.8125C84.7234 78.9091 83.8313 79.7557 82.695 80.3523C81.5586 80.9432 80.2575 81.2386 78.7915 81.2386C77.1552 81.2386 75.7177 80.8778 74.479 80.1562C73.2404 79.429 72.2745 78.3977 71.5813 77.0625C70.8938 75.7216 70.5501 74.1307 70.5501 72.2898C70.5501 70.875 70.7546 69.6136 71.1637 68.5057C71.5785 67.392 72.158 66.4489 72.9023 65.6761C73.6467 64.9034 74.5131 64.3153 75.5018 63.9119C76.4904 63.5085 77.5614 63.3068 78.7148 63.3068C79.7035 63.3068 80.6239 63.4517 81.4762 63.7415C82.3285 64.0256 83.0842 64.429 83.7433 64.9517C84.408 65.4744 84.9506 66.0966 85.3711 66.8182C85.7915 67.5341 86.0614 68.3239 86.1808 69.1875H82.4308ZM105.154 72.2727C105.154 74.1761 104.794 75.7955 104.072 77.1307C103.356 78.4659 102.379 79.4858 101.14 80.1903C99.9073 80.8892 98.521 81.2386 96.9812 81.2386C95.43 81.2386 94.038 80.8864 92.805 80.1818C91.5721 79.4773 90.5977 78.4574 89.8817 77.1222C89.1658 75.7869 88.8079 74.1705 88.8079 72.2727C88.8079 70.3693 89.1658 68.75 89.8817 67.4148C90.5977 66.0795 91.5721 65.0625 92.805 64.3636C94.038 63.6591 95.43 63.3068 96.9812 63.3068C98.521 63.3068 99.9073 63.6591 101.14 64.3636C102.379 65.0625 103.356 66.0795 104.072 67.4148C104.794 68.75 105.154 70.3693 105.154 72.2727ZM101.413 72.2727C101.413 71.0398 101.228 70 100.859 69.1534C100.495 68.3068 99.9812 67.6648 99.3164 67.2273C98.6516 66.7898 97.8732 66.571 96.9812 66.571C96.0891 66.571 95.3107 66.7898 94.646 67.2273C93.9812 67.6648 93.4641 68.3068 93.0948 69.1534C92.7312 70 92.5494 71.0398 92.5494 72.2727C92.5494 73.5057 92.7312 74.5455 93.0948 75.392C93.4641 76.2386 93.9812 76.8807 94.646 77.3182C95.3107 77.7557 96.0891 77.9744 96.9812 77.9744C97.8732 77.9744 98.6516 77.7557 99.3164 77.3182C99.9812 76.8807 100.495 76.2386 100.859 75.392C101.228 74.5455 101.413 73.5057 101.413 72.2727Z" fill="#E1FF41"/>
</g>
<defs>
<filter id="filter0_d_1373_1350" x="0" y="0" width="144" height="144" filterUnits="userSpaceOnUse" color-interpolation-filters="sRGB">
<feFlood flood-opacity="0" result="BackgroundImageFix"/>
<feColorMatrix in="SourceAlpha" type="matrix" values="0 0 0 0 0 0 0 0 0 0 0 0 0 0 0 0 0 0 127 0" result="hardAlpha"/>
<feOffset/>
<feGaussianBlur stdDeviation="4"/>
<feComposite in2="hardAlpha" operator="out"/>
<feColorMatrix type="matrix" values="0 0 0 0 0.882353 0 0 0 0 1 0 0 0 0 0.254902 0 0 0 1 0"/>
<feBlend mode="normal" in2="BackgroundImageFix" result="effect1_dropShadow_1373_1350"/>
<feBlend mode="normal" in="SourceGraphic" in2="effect1_dropShadow_1373_1350" result="shape"/>
</filter>
</defs>
</svg>
