<svg width="144" height="144" viewBox="0 0 144 144" fill="none" xmlns="http://www.w3.org/2000/svg">
<g filter="url(#filter0_d_1346_1321)">
<rect x="8" y="8" width="128" height="128" rx="16" fill="#1E1E1E"/>
<path d="M34.3008 72.8047C33.9727 72.8047 33.6602 72.7422 33.3633 72.6172C33.0742 72.4844 32.8203 72.3125 32.6016 72.1016C32.3828 71.8828 32.2109 71.6289 32.0859 71.3398C31.9609 71.043 31.8984 70.7305 31.8984 70.4023V65.5977C31.8984 65.2695 31.9609 64.9609 32.0859 64.6719C32.2109 64.375 32.3828 64.1211 32.6016 63.9102C32.8203 63.6914 33.0742 63.5195 33.3633 63.3945C33.6602 63.2617 33.9727 63.1953 34.3008 63.1953H42.457C42.7852 63.1953 43.0938 63.2617 43.3828 63.3945C43.6797 63.5195 43.9375 63.6914 44.1562 63.9102C44.375 64.1211 44.5469 64.375 44.6719 64.6719C44.7969 64.9609 44.8594 65.2695 44.8594 65.5977V67.7656H42.457V65.5977H34.3008V70.4023H42.457C42.7852 70.4023 43.0938 70.4648 43.3828 70.5898C43.6797 70.7148 43.9375 70.8867 44.1562 71.1055C44.375 71.3242 44.5469 71.582 44.6719 71.8789C44.7969 72.168 44.8594 72.4766 44.8594 72.8047V77.5977C44.8594 77.9258 44.7969 78.2383 44.6719 78.5352C44.5469 78.8242 44.375 79.0781 44.1562 79.2969C43.9375 79.5156 43.6797 79.6875 43.3828 79.8125C43.0938 79.9375 42.7852 80 42.457 80H34.0664C33.7383 80 33.4258 79.9375 33.1289 79.8125C32.8398 79.6875 32.5859 79.5156 32.3672 79.2969C32.1484 79.0781 31.9766 78.8242 31.8516 78.5352C31.7266 78.2383 31.6641 77.9258 31.6641 77.5977V75.4414H34.0664V77.5977H42.457V72.8047H34.3008ZM49.1953 65.5977C49.1953 65.2695 49.2578 64.9609 49.3828 64.6719C49.5078 64.375 49.6797 64.1211 49.8984 63.9102C50.1172 63.6914 50.3711 63.5195 50.6602 63.3945C50.957 63.2617 51.2695 63.1953 51.5977 63.1953H60.7148C61.043 63.1953 61.3516 63.2617 61.6406 63.3945C61.9375 63.5195 62.1953 63.6914 62.4141 63.9102C62.6328 64.1211 62.8047 64.375 62.9297 64.6719C63.0547 64.9609 63.1172 65.2695 63.1172 65.5977V67.7656H60.7148V65.5977H51.5977V77.5977H60.7148V75.4414H63.1172V77.5977C63.1172 77.9258 63.0547 78.2383 62.9297 78.5352C62.8047 78.8242 62.6328 79.0781 62.4141 79.2969C62.1953 79.5156 61.9375 79.6875 61.6406 79.8125C61.3516 79.9375 61.043 80 60.7148 80H51.5977C51.2695 80 50.957 79.9375 50.6602 79.8125C50.3711 79.6875 50.1172 79.5156 49.8984 79.2969C49.6797 79.0781 49.5078 78.8242 49.3828 78.5352C49.2578 78.2383 49.1953 77.9258 49.1953 77.5977V65.5977Z" fill="#DCDCDC"/>
<path d="M83.7539 80H81.3516V63.1953H83.7539L93.8555 76.2266V63.1953H96.2578V80H93.8555L83.7539 66.9688V80ZM100.57 63.1953H112.816V65.5977H102.973V70.4023H111.375V72.8047H102.973V77.5977H112.816V80H100.57V63.1953Z" fill="#E1FF41"/>
<path d="M77.7656 63.1953H65.5195V65.5977H75.3633V70.4023H66.9609V72.8047H75.3633V77.5977H65.5195V80H77.7656V63.1953Z" fill="white"/>
</g>
<defs>
<filter id="filter0_d_1346_1321" x="0" y="0" width="144" height="144" filterUnits="userSpaceOnUse" color-interpolation-filters="sRGB">
<feFlood flood-opacity="0" result="BackgroundImageFix"/>
<feColorMatrix in="SourceAlpha" type="matrix" values="0 0 0 0 0 0 0 0 0 0 0 0 0 0 0 0 0 0 127 0" result="hardAlpha"/>
<feOffset/>
<feGaussianBlur stdDeviation="4"/>
<feComposite in2="hardAlpha" operator="out"/>
<feColorMatrix type="matrix" values="0 0 0 0 0.882353 0 0 0 0 1 0 0 0 0 0.254902 0 0 0 1 0"/>
<feBlend mode="normal" in2="BackgroundImageFix" result="effect1_dropShadow_1346_1321"/>
<feBlend mode="normal" in="SourceGraphic" in2="effect1_dropShadow_1346_1321" result="shape"/>
</filter>
</defs>
</svg>
