<svg width="200" height="60" viewBox="0 0 200 60" fill="none" xmlns="http://www.w3.org/2000/svg">
<path d="M192.593 59.2593H7.40741C3.25926 59.2593 0 56 0 51.8518V7.40741C0 3.25926 3.25926 0 7.40741 0H192.593C196.741 0 200 3.25926 200 7.40741V51.8518C200 56 196.741 59.2593 192.593 59.2593Z" fill="black"/>
<path d="M192.593 1.18519C196 1.18519 198.815 4 198.815 7.40741V51.8518C198.815 55.2593 196 58.0741 192.593 58.0741H7.40741C4 58.0741 1.18519 55.2593 1.18519 51.8518V7.40741C1.18519 4 4 1.18519 7.40741 1.18519H192.593ZM192.593 0H7.40741C3.25926 0 0 3.40741 0 7.40741V51.8518C0 56 3.25926 59.2593 7.40741 59.2593H192.593C196.741 59.2593 200 56 200 51.8518V7.40741C200 3.40741 196.741 0 192.593 0Z" fill="#A6A6A6"/>
<path d="M70.2223 15.1115C70.2223 16.2967 69.926 17.3338 69.1852 18.0745C68.2963 18.9634 67.2593 19.4078 65.926 19.4078C64.5926 19.4078 63.5556 18.9634 62.6667 18.0745C61.7778 17.1856 61.3334 16.1486 61.3334 14.8152C61.3334 13.4819 61.7778 12.4449 62.6667 11.556C63.5556 10.6671 64.5926 10.2227 65.926 10.2227C66.5186 10.2227 67.1112 10.3708 67.7037 10.6671C68.2963 10.9634 68.7408 11.2597 69.0371 11.7041L68.2963 12.4449C67.7037 11.7041 66.963 11.4078 65.926 11.4078C65.0371 11.4078 64.1482 11.7041 63.5556 12.4449C62.8149 13.0375 62.5186 13.9264 62.5186 14.9634C62.5186 16.0004 62.8149 16.8893 63.5556 17.4819C64.2963 18.0745 65.0371 18.519 65.926 18.519C66.963 18.519 67.7037 18.2227 68.4445 17.4819C68.8889 17.0375 69.1852 16.4449 69.1852 15.7041H65.926V14.519H70.2223V15.1115ZM77.0371 11.4078H73.0371V14.2227H76.7408V15.2597H73.0371V18.0745H77.0371V19.2597H71.8519V10.3708H77.0371V11.4078ZM81.926 19.2597H80.7408V11.4078H78.2223V10.3708H84.4445V11.4078H81.926V19.2597ZM88.7408 19.2597V10.3708H89.926V19.2597H88.7408ZM94.963 19.2597H93.7778V11.4078H91.2593V10.3708H97.3334V11.4078H94.8149V19.2597H94.963ZM109.037 18.0745C108.148 18.9634 107.111 19.4078 105.778 19.4078C104.444 19.4078 103.407 18.9634 102.519 18.0745C101.63 17.1856 101.185 16.1486 101.185 14.8152C101.185 13.4819 101.63 12.4449 102.519 11.556C103.407 10.6671 104.444 10.2227 105.778 10.2227C107.111 10.2227 108.148 10.6671 109.037 11.556C109.926 12.4449 110.37 13.4819 110.37 14.8152C110.37 16.1486 109.926 17.1856 109.037 18.0745ZM103.407 17.3338C104 17.9264 104.889 18.3708 105.778 18.3708C106.667 18.3708 107.556 18.0745 108.148 17.3338C108.741 16.7412 109.185 15.8523 109.185 14.8152C109.185 13.7782 108.889 12.8893 108.148 12.2967C107.556 11.7041 106.667 11.2597 105.778 11.2597C104.889 11.2597 104 11.556 103.407 12.2967C102.815 12.8893 102.37 13.7782 102.37 14.8152C102.37 15.8523 102.667 16.7412 103.407 17.3338ZM112 19.2597V10.3708H113.333L117.63 17.3338V10.3708H118.815V19.2597H117.63L113.037 12.0004V19.2597H112Z" fill="white" stroke="white" stroke-width="1.18519" stroke-miterlimit="10"/>
<path d="M100.889 32.2969C97.3334 32.2969 94.5185 34.9636 94.5185 38.6673C94.5185 42.2229 97.3334 45.0377 100.889 45.0377C104.444 45.0377 107.259 42.371 107.259 38.6673C107.259 34.8155 104.444 32.2969 100.889 32.2969ZM100.889 42.371C98.963 42.371 97.3334 40.7414 97.3334 38.5192C97.3334 36.2969 98.963 34.6673 100.889 34.6673C102.815 34.6673 104.444 36.1488 104.444 38.5192C104.444 40.7414 102.815 42.371 100.889 42.371ZM87.1111 32.2969C83.5556 32.2969 80.7408 34.9636 80.7408 38.6673C80.7408 42.2229 83.5556 45.0377 87.1111 45.0377C90.6667 45.0377 93.4815 42.371 93.4815 38.6673C93.4815 34.8155 90.6667 32.2969 87.1111 32.2969ZM87.1111 42.371C85.1852 42.371 83.5556 40.7414 83.5556 38.5192C83.5556 36.2969 85.1852 34.6673 87.1111 34.6673C89.0371 34.6673 90.6667 36.1488 90.6667 38.5192C90.6667 40.7414 89.0371 42.371 87.1111 42.371ZM70.6667 34.2229V36.8895H77.0371C76.8889 38.371 76.2963 39.5562 75.5556 40.2969C74.6667 41.1858 73.1852 42.2229 70.6667 42.2229C66.6667 42.2229 63.7037 39.1118 63.7037 35.1118C63.7037 31.1118 66.8148 28.0006 70.6667 28.0006C72.7408 28.0006 74.3704 28.8895 75.5556 29.9266L77.4815 28.0006C75.8519 26.5192 73.7778 25.334 70.8148 25.334C65.4815 25.334 60.8889 29.7784 60.8889 35.1118C60.8889 40.4451 65.4815 44.8895 70.8148 44.8895C73.7778 44.8895 75.8519 44.0006 77.6297 42.0747C79.4074 40.2969 80 37.7784 80 35.8525C80 35.2599 80 34.6673 79.8519 34.2229H70.6667ZM137.926 36.2969C137.333 34.8155 135.852 32.2969 132.593 32.2969C129.333 32.2969 126.667 34.8155 126.667 38.6673C126.667 42.2229 129.333 45.0377 132.889 45.0377C135.704 45.0377 137.482 43.2599 138.074 42.2229L136 40.7414C135.259 41.7784 134.37 42.5192 132.889 42.5192C131.407 42.5192 130.519 41.9266 129.778 40.5932L138.222 37.0377L137.926 36.2969ZM129.333 38.371C129.333 36.0006 131.259 34.6673 132.593 34.6673C133.63 34.6673 134.667 35.2599 134.963 36.0006L129.333 38.371ZM122.37 44.4451H125.185V25.9266H122.37V44.4451ZM117.926 33.6303C117.185 32.8895 116 32.1488 114.519 32.1488C111.407 32.1488 108.444 34.9636 108.444 38.5192C108.444 42.0747 111.259 44.7414 114.519 44.7414C116 44.7414 117.185 44.0007 117.778 43.2599H117.926V44.1488C117.926 46.5192 116.593 47.8525 114.519 47.8525C112.889 47.8525 111.704 46.6673 111.407 45.6303L109.037 46.6673C109.778 48.2969 111.556 50.371 114.667 50.371C117.926 50.371 120.593 48.4451 120.593 43.8525V32.5932H117.926V33.6303ZM114.667 42.371C112.741 42.371 111.111 40.7414 111.111 38.5192C111.111 36.2969 112.741 34.6673 114.667 34.6673C116.593 34.6673 118.074 36.2969 118.074 38.5192C118.074 40.7414 116.593 42.371 114.667 42.371ZM150.815 25.9266H144.148V44.4451H146.963V37.4821H150.815C153.926 37.4821 156.889 35.2599 156.889 31.7044C156.889 28.1488 153.926 25.9266 150.815 25.9266ZM150.963 34.8155H146.963V28.4451H150.963C153.037 28.4451 154.222 30.2229 154.222 31.5562C154.074 33.1858 152.889 34.8155 150.963 34.8155ZM168 32.1488C165.926 32.1488 163.852 33.0377 163.111 34.9636L165.63 36.0006C166.222 34.9636 167.111 34.6673 168.148 34.6673C169.63 34.6673 170.963 35.5562 171.111 37.0377V37.1858C170.667 36.8895 169.482 36.4451 168.296 36.4451C165.63 36.4451 162.963 37.9266 162.963 40.5932C162.963 43.1118 165.185 44.7414 167.556 44.7414C169.482 44.7414 170.37 43.8525 171.111 42.9636H171.259V44.4451H173.926V37.334C173.63 34.0747 171.111 32.1488 168 32.1488ZM167.704 42.371C166.815 42.371 165.482 41.9266 165.482 40.7414C165.482 39.2599 167.111 38.8155 168.444 38.8155C169.63 38.8155 170.222 39.1118 170.963 39.4081C170.667 41.1858 169.185 42.371 167.704 42.371ZM183.259 32.5932L180.148 40.5932H180L176.741 32.5932H173.778L178.667 43.8525L175.852 50.0747H178.667L186.222 32.5932H183.259ZM158.37 44.4451H161.185V25.9266H158.37V44.4451Z" fill="white"/>
<path d="M15.4074 11.1113C14.963 11.5558 14.8148 12.2965 14.8148 13.1854V45.9261C14.8148 46.815 15.1111 47.5558 15.5556 48.0002L15.7037 48.1484L34.0741 29.778V29.4817L15.4074 11.1113Z" fill="url(#paint0_linear_1373_1337)"/>
<path d="M40 35.9988L33.9259 29.9248V29.4803L40 23.4062L40.1481 23.5544L47.4074 27.7025C49.4815 28.8877 49.4815 30.8137 47.4074 31.9988L40 35.9988Z" fill="url(#paint1_linear_1373_1337)"/>
<path d="M40.1482 35.8511L33.926 29.6289L15.4075 48.1474C16.1482 48.8882 17.1852 48.8882 18.5186 48.2956L40.1482 35.8511Z" fill="url(#paint2_linear_1373_1337)"/>
<path d="M40.1482 23.4063L18.5186 11.11C17.1852 10.3693 16.1482 10.5175 15.4075 11.2582L33.926 29.6286L40.1482 23.4063Z" fill="url(#paint3_linear_1373_1337)"/>
<path opacity="0.2" d="M40.0001 35.7031L18.5186 47.8513C17.3334 48.592 16.2964 48.4439 15.5556 47.8513L15.4075 47.9994L15.5556 48.1476C16.2964 48.7402 17.3334 48.8883 18.5186 48.1476L40.0001 35.7031Z" fill="black"/>
<path opacity="0.12" d="M15.4074 47.8511C14.963 47.4067 14.8148 46.6659 14.8148 45.7771V45.9252C14.8148 46.8141 15.1111 47.5548 15.5556 47.9993V47.8511H15.4074ZM47.4074 31.5548L40 35.703L40.1482 35.8511L47.4074 31.703C48.4444 31.1104 48.8889 30.3696 48.8889 29.6289C48.8889 30.3696 48.2963 30.9622 47.4074 31.5548Z" fill="black"/>
<path opacity="0.25" d="M18.5185 11.2587L47.4074 27.7032C48.2963 28.2958 48.8889 28.8883 48.8889 29.6291C48.8889 28.8883 48.4444 28.1476 47.4074 27.555L18.5185 11.1106C16.4444 9.92539 14.8148 10.8143 14.8148 13.1846V13.3328C14.8148 11.1106 16.4444 10.0735 18.5185 11.2587Z" fill="white"/>
<defs>
<linearGradient id="paint0_linear_1373_1337" x1="32.2963" y1="12.9039" x2="7.4326" y2="37.7661" gradientUnits="userSpaceOnUse">
<stop stop-color="#00A0FF"/>
<stop offset="0.007" stop-color="#00A1FF"/>
<stop offset="0.26" stop-color="#00BEFF"/>
<stop offset="0.512" stop-color="#00D2FF"/>
<stop offset="0.76" stop-color="#00DFFF"/>
<stop offset="1" stop-color="#00E3FF"/>
</linearGradient>
<linearGradient id="paint1_linear_1373_1337" x1="50.1244" y1="29.63" x2="14.277" y2="29.63" gradientUnits="userSpaceOnUse">
<stop stop-color="#FFE000"/>
<stop offset="0.409" stop-color="#FFBD00"/>
<stop offset="0.775" stop-color="#FFA500"/>
<stop offset="1" stop-color="#FF9C00"/>
</linearGradient>
<linearGradient id="paint2_linear_1373_1337" x1="36.7808" y1="33.0304" x2="3.06525" y2="66.7459" gradientUnits="userSpaceOnUse">
<stop stop-color="#FF3A44"/>
<stop offset="1" stop-color="#C31162"/>
</linearGradient>
<linearGradient id="paint3_linear_1373_1337" x1="10.8104" y1="0.259677" x2="25.8667" y2="15.316" gradientUnits="userSpaceOnUse">
<stop stop-color="#32A071"/>
<stop offset="0.069" stop-color="#2DA771"/>
<stop offset="0.476" stop-color="#15CF74"/>
<stop offset="0.801" stop-color="#06E775"/>
<stop offset="1" stop-color="#00F076"/>
</linearGradient>
</defs>
</svg>
